<svg width="365" height="323" viewBox="0 0 365 323" fill="none" xmlns="http://www.w3.org/2000/svg">
<path d="M113.238 28.2756C130.678 28.2757 142.236 32.2288 149.999 39.3625C157.79 46.5226 162.167 57.2581 164.42 71.72C166.673 86.1844 166.751 104.013 166.245 125.019C165.741 145.95 164.66 170.004 164.66 196.616C164.66 223.307 165.231 244.327 164.973 261.134C164.715 277.948 163.62 290.014 160.469 298.705C157.399 307.17 152.383 312.422 143.923 315.678C135.234 319.022 122.864 320.276 105.096 320.276C69.8297 320.276 44.4752 312.424 27.79 292.059C10.985 271.547 2.50004 237.799 2.5 184.789C2.5 131.912 12.9711 92.7659 31.9434 66.8997C50.8268 41.1546 78.3429 28.2756 113.238 28.2756Z" fill="#F4C2D7" stroke="#D4789E" stroke-width="5"/>
<path d="M251.762 28.2756C234.322 28.2757 222.764 32.2288 215.001 39.3625C207.21 46.5226 202.833 57.2581 200.58 71.72C198.327 86.1844 198.249 104.013 198.755 125.019C199.259 145.95 200.34 170.004 200.34 196.616C200.34 223.307 199.769 244.327 200.027 261.134C200.285 277.948 201.38 290.014 204.531 298.705C207.601 307.17 212.617 312.422 221.077 315.678C229.766 319.022 242.136 320.276 259.904 320.276C295.17 320.276 320.525 312.424 337.21 292.059C354.015 271.547 362.5 237.799 362.5 184.789C362.5 131.912 352.029 92.7659 333.057 66.8997C314.173 41.1546 286.657 28.2756 251.762 28.2756Z" fill="#F4C2D7" stroke="#D4789E" stroke-width="5"/>
<path d="M181 2.5C192.322 2.5 201.5 11.6782 201.5 23V92C201.5 103.322 192.322 112.5 181 112.5C169.678 112.5 160.5 103.322 160.5 92V23C160.5 11.6782 169.678 2.5 181 2.5Z" fill="#F4C2D7" stroke="#D4789E" stroke-width="5"/>
<rect x="46.1802" y="122.177" width="27.7001" height="58.4002" rx="8.5" transform="rotate(-111.678 46.1802 122.177)" fill="#FFE0B2" stroke="#E9AF4C" stroke-width="3" stroke-linecap="round"/>
<path d="M61.2095 108.64L56.0118 95.5644" stroke="#E9AF4C" stroke-width="3" stroke-linecap="round"/>
<path d="M79.436 101.395L74.2383 88.3191" stroke="#E9AF4C" stroke-width="3" stroke-linecap="round"/>
<rect x="329.489" y="258.262" width="33" height="69" rx="8.5" transform="rotate(116.008 329.489 258.262)" fill="#FFE0B2" stroke="#E9AF4C" stroke-width="3" stroke-linecap="round"/>
<path d="M305.54 256.035L298.305 270.864" stroke="#E9AF4C" stroke-width="3" stroke-linecap="round"/>
<path d="M284.869 245.95L277.634 260.779" stroke="#E9AF4C" stroke-width="3" stroke-linecap="round"/>
<ellipse cx="300" cy="211.5" rx="31" ry="19.5" fill="#F0A0B8" fill-opacity="0.5"/>
<ellipse cx="61" cy="211.5" rx="31" ry="19.5" fill="#F0A0B8" fill-opacity="0.5"/>
<path d="M147 221C172.884 235.514 187.765 235.625 215 221" stroke="#2D2A3E" stroke-width="10" stroke-linecap="round"/>
<ellipse cx="134" cy="165" rx="18" ry="25" fill="#2D2A3E"/>
<ellipse cx="140.5" cy="153.182" rx="7.5" ry="6.81818" fill="white"/>
<ellipse cx="231" cy="165" rx="18" ry="25" fill="#2D2A3E"/>
<ellipse cx="237.5" cy="153.182" rx="7.5" ry="6.81818" fill="white"/>
</svg>
