<svg width="365" height="323" viewBox="0 0 365 323" fill="none" xmlns="http://www.w3.org/2000/svg">
<path d="M167.161 196.616C167.161 302.913 176.272 322.776 105.096 322.776C33.9191 322.776 0 291.086 0 184.789C0 78.4921 42.0613 25.7756 113.238 25.7756C184.414 25.7756 167.161 90.3195 167.161 196.616Z" fill="#F4C2D7"/>
<path d="M0 184.789C0 78.4927 42.0611 25.7759 113.237 25.7756H113.238C184.414 25.7759 167.16 90.3199 167.16 196.616L167.167 201.536C167.426 303.529 175.16 322.776 105.096 322.776V317.776C122.837 317.776 134.802 316.51 143.025 313.345C150.792 310.356 155.29 305.656 158.119 297.853C161.113 289.597 162.215 277.914 162.473 261.096C162.73 244.291 162.16 223.425 162.16 196.616C162.16 169.966 163.244 145.822 163.746 124.958C164.252 103.945 164.165 86.3221 161.95 72.1047C159.736 57.8927 155.498 47.8116 148.308 41.2034C141.174 34.6476 130.324 30.7757 113.238 30.7756C79.0358 30.7756 52.3135 43.3542 33.959 68.3782C15.4268 93.6444 5 132.183 5 184.789C5.00004 237.662 13.4908 270.66 29.7246 290.475C45.7181 309.996 70.1519 317.776 105.096 317.776V322.776L103.435 322.77C33.9429 322.28 0.527817 290.758 0.00585938 187.267L0 184.789Z" fill="#F4C2D7"/>
<path d="M197.839 196.616C197.839 302.913 188.728 322.776 259.904 322.776C331.081 322.776 365 291.086 365 184.789C365 78.4921 322.939 25.7756 251.762 25.7756C180.586 25.7756 197.839 90.3195 197.839 196.616Z" fill="#F4C2D7"/>
<path d="M365 184.789C365 78.4927 322.939 25.7759 251.763 25.7756H251.762C180.586 25.7759 197.84 90.3199 197.84 196.616L197.833 201.536C197.574 303.529 189.84 322.776 259.904 322.776V317.776C242.163 317.776 230.198 316.51 221.975 313.345C214.208 310.356 209.71 305.656 206.881 297.853C203.887 289.597 202.785 277.914 202.527 261.096C202.27 244.291 202.84 223.425 202.84 196.616C202.84 169.966 201.756 145.822 201.254 124.958C200.748 103.945 200.835 86.3221 203.05 72.1047C205.264 57.8927 209.502 47.8116 216.692 41.2034C223.826 34.6476 234.676 30.7757 251.762 30.7756C285.964 30.7756 312.686 43.3542 331.041 68.3782C349.573 93.6444 360 132.183 360 184.789C360 237.662 351.509 270.66 335.275 290.475C319.282 309.996 294.848 317.776 259.904 317.776V322.776L261.565 322.77C331.057 322.28 364.472 290.758 364.994 187.267L365 184.789Z" fill="#F4C2D7"/>
<path d="M204 23C204 10.2974 193.703 0 181 0C168.297 0 158 10.2975 158 23V92C158 104.703 168.297 115 181 115C193.703 115 204 104.703 204 92V23Z" fill="#F4C2D7"/>
<path d="M199 92V23C199 13.0589 190.941 5 181 5C171.059 5 163 13.0589 163 23V92C163 101.941 171.059 110 181 110V115L180.406 114.992C168.175 114.682 158.318 104.825 158.008 92.5938L158 92V23C158 10.2975 168.297 0 181 0L181.594 0.0078125C194.022 0.322744 204 10.496 204 23V92L203.992 92.5938C203.677 105.022 193.504 115 181 115V110C190.941 110 199 101.941 199 92Z" fill="#F4C2D7"/>
<path d="M54.6331 120.431C49.5008 122.471 43.6865 119.965 41.6464 114.832L37.6938 104.889C35.6537 99.7567 38.1604 93.9424 43.2926 91.9023L81.7647 76.6093C86.897 74.5692 92.7113 77.0758 94.7514 82.2081L98.704 92.1514C100.744 97.2836 98.2374 103.098 93.1052 105.138L54.6331 120.431Z" fill="#FFE0B2"/>
<path d="M91.9636 83.3162L94.7514 82.2081L98.704 92.1514L95.9162 93.2596L91.9636 83.3162ZM82.8729 79.3971L44.4008 94.6901C40.8083 96.1182 39.0536 100.188 40.4816 103.781L44.4342 113.724C45.8623 117.317 49.9323 119.071 53.5249 117.643L91.997 102.35C95.5895 100.922 97.3442 96.8521 95.9162 93.2596L98.704 92.1514L98.8823 92.6344C100.53 97.4816 98.2345 102.806 93.5788 104.936L93.1052 105.138L54.633 120.431C49.6612 122.407 44.049 120.117 41.8483 115.306L41.6464 114.832L37.6938 104.889L37.5155 104.406C35.8127 99.3971 38.3208 93.8786 43.2926 91.9023L81.7648 76.6093L82.2477 76.431C87.095 74.7832 92.4198 77.0788 94.5495 81.7345L94.7514 82.2081L91.9636 83.3162C90.5355 79.7238 86.4654 77.9691 82.8729 79.3971Z" fill="#FFE0B2"/>
<path d="M54.6177 96.1182C54.3119 95.3484 54.6878 94.4761 55.4575 94.1702C56.2272 93.8642 57.0994 94.2404 57.4055 95.01L62.6034 108.086C62.9094 108.856 62.5334 109.728 61.7635 110.034C60.9937 110.34 60.1216 109.964 59.8155 109.194L54.6177 96.1182Z" fill="#E9AF4C"/>
<path d="M72.8443 88.8728C72.5385 88.1031 72.9144 87.2308 73.6841 86.9248C74.4538 86.6188 75.3259 86.995 75.6321 87.7646L80.8299 100.841C81.1359 101.611 80.7599 102.483 79.9901 102.789C79.2203 103.095 78.3481 102.719 78.0421 101.949L72.8443 88.8728Z" fill="#E9AF4C"/>
<path d="M322.507 253.187C327.471 255.608 329.531 261.595 327.11 266.559L320.094 280.939C317.672 285.902 311.685 287.963 306.721 285.541L259.987 262.739C255.024 260.318 252.963 254.331 255.385 249.367L262.401 234.987C264.823 230.024 270.81 227.963 275.773 230.385L322.507 253.187Z" fill="#FFE0B2"/>
<path d="M258.081 250.682L255.385 249.367L262.401 234.987L265.097 236.303L258.081 250.682ZM261.303 260.043L308.037 282.845C311.511 284.54 315.702 283.098 317.398 279.623L324.413 265.243C326.109 261.769 324.666 257.578 321.192 255.883L274.458 233.081C270.983 231.386 266.792 232.828 265.097 236.303L262.401 234.987C264.747 230.179 270.439 228.094 275.305 230.171L275.773 230.385L322.507 253.187C327.471 255.608 329.531 261.595 327.11 266.559L320.094 280.939L319.857 281.396C317.299 286.027 311.53 287.887 306.721 285.541L259.987 262.739L259.53 262.502C255.049 260.027 253.162 254.544 255.171 249.835L255.385 249.367L258.081 250.682C256.386 254.157 257.828 258.348 261.303 260.043Z" fill="#FFE0B2"/>
<path d="M299.653 271.522C299.29 272.266 298.392 272.576 297.647 272.212C296.903 271.849 296.594 270.951 296.957 270.206L304.192 255.377C304.555 254.633 305.453 254.324 306.198 254.687C306.942 255.05 307.251 255.948 306.888 256.693L299.653 271.522Z" fill="#E9AF4C"/>
<path d="M278.982 261.436C278.619 262.181 277.721 262.49 276.976 262.127C276.232 261.764 275.923 260.866 276.286 260.121L283.521 245.292C283.884 244.547 284.782 244.238 285.527 244.602C286.271 244.965 286.581 245.863 286.217 246.607L278.982 261.436Z" fill="#E9AF4C"/>
<path d="M331 211.5C331 222.27 317.121 231 300 231C282.879 231 269 222.27 269 211.5C269 200.73 282.879 192 300 192C317.121 192 331 200.73 331 211.5Z" fill="#F0A0B8" fill-opacity="0.5"/>
<path d="M92 211.5C92 222.27 78.1208 231 61 231C43.8792 231 30 222.27 30 211.5C30 200.73 43.8792 192 61 192C78.1208 192 92 200.73 92 211.5Z" fill="#F0A0B8" fill-opacity="0.5"/>
<path d="M213.634 216.598C216.067 215.287 219.098 216.204 220.404 218.645C221.71 221.086 220.797 224.127 218.364 225.438C204.476 232.922 193.072 237.016 181.486 237C169.876 236.984 158.795 232.844 145.556 225.394C143.147 224.039 142.289 220.981 143.64 218.564C144.99 216.148 148.038 215.287 150.446 216.642C163.089 223.756 172.391 226.954 181.5 226.966C190.634 226.978 200.288 223.789 213.634 216.598Z" fill="#2D2A3E"/>
<path d="M157 160.278C157 182.523 144.016 200.556 128 200.556C111.984 200.556 99 182.523 99 160.278C99 138.033 111.984 120 128 120C144.016 120 157 138.033 157 160.278Z" fill="white"/>
<path d="M150.556 141.237C150.556 147.304 145.146 152.222 138.472 152.222C131.799 152.222 126.389 147.304 126.389 141.237C126.389 135.171 131.799 130.252 138.472 130.252C145.146 130.252 150.556 135.171 150.556 141.237Z" fill="white"/>
<path d="M151 161C151 174.807 142.941 186 133 186C123.059 186 115 174.807 115 161C115 147.193 123.059 136 133 136C142.941 136 151 147.193 151 161Z" fill="#2D2A3E"/>
<path d="M144.5 147.318C144.5 151.084 141.142 154.136 137 154.136C132.858 154.136 129.5 151.084 129.5 147.318C129.5 143.553 132.858 140.5 137 140.5C141.142 140.5 144.5 143.553 144.5 147.318Z" fill="white"/>
<path d="M266 160.278C266 182.523 253.016 200.556 237 200.556C220.984 200.556 208 182.523 208 160.278C208 138.033 220.984 120 237 120C253.016 120 266 138.033 266 160.278Z" fill="white"/>
<path d="M259.556 141.237C259.556 147.304 254.146 152.222 247.472 152.222C240.799 152.222 235.389 147.304 235.389 141.237C235.389 135.171 240.799 130.252 247.472 130.252C254.146 130.252 259.556 135.171 259.556 141.237Z" fill="white"/>
<path d="M260 161C260 174.807 251.941 186 242 186C232.059 186 224 174.807 224 161C224 147.193 232.059 136 242 136C251.941 136 260 147.193 260 161Z" fill="#2D2A3E"/>
<path d="M253.5 147.318C253.5 151.084 250.142 154.136 246 154.136C241.858 154.136 238.5 151.084 238.5 147.318C238.5 143.553 241.858 140.5 246 140.5C250.142 140.5 253.5 143.553 253.5 147.318Z" fill="white"/>
</svg>
